<svg width="180" height="46" viewBox="0 0 180 46" fill="none" xmlns="http://www.w3.org/2000/svg">
<g clip-path="url(#clip0_3819_1050)">
<path d="M1.55469 13.9452V31.9164C1.55469 33.018 2.19549 34.1196 3.11709 34.6668L18.7051 43.6524C19.7131 44.1996 20.9083 44.1996 21.9163 43.6524L37.5043 34.6668C38.5123 34.1196 39.0667 33.018 39.0667 31.9164V13.9452C39.0667 12.8436 38.4259 11.742 37.5043 11.1948L21.9091 2.20923C20.9011 1.66203 19.7059 1.66203 18.6979 2.20923L3.10989 11.1948C2.10189 11.742 1.55469 12.8436 1.55469 13.9452Z" fill="#213147"/>
<path d="M23.7422 26.416L21.539 32.4712C21.4453 32.6512 21.4453 32.8384 21.539 33.0184L25.391 43.4728L29.7902 40.9024L24.4694 26.416C24.383 26.0488 23.9222 26.0488 23.7422 26.416Z" fill="#12AAFF"/>
<path d="M28.1406 16.1484C28.047 15.7812 27.5934 15.7812 27.4062 16.1484L25.203 22.2036C25.1094 22.3836 25.1094 22.5708 25.203 22.7508L31.4382 39.9012L35.8374 37.3308L28.1406 16.1484Z" fill="#12AAFF"/>
<path d="M20.2607 2.84986C20.3542 2.84986 20.4406 2.84986 20.5342 2.94346L37.4038 12.6635C37.5838 12.7571 37.6775 12.9371 37.6775 13.2107V32.6507C37.6775 32.8307 37.5838 33.1115 37.4038 33.1979L20.5342 42.9179C20.4406 43.0115 20.3542 43.0115 20.2607 43.0115C20.1671 43.0115 20.0807 43.0115 19.9871 42.9179L3.11745 33.1979C2.93745 33.1043 2.84385 32.9243 2.84385 32.6507V13.2107C2.84385 13.0307 2.93745 12.7499 3.11745 12.6635L19.9871 2.94346C20.0735 2.84986 20.1671 2.84986 20.2607 2.84986ZM20.2607 0.00585938C19.6199 0.00585938 19.0654 0.185859 18.5182 0.466659L1.64865 10.1867C0.54705 10.8275 -0.09375 11.9291 -0.09375 13.2107V32.6507C-0.09375 33.8459 0.54705 35.0339 1.64865 35.6747L18.5182 45.3947C19.0654 45.6683 19.6199 45.8555 20.2607 45.8555C20.9014 45.8555 21.4559 45.6755 22.0031 45.3947L38.8726 35.6747C39.9742 35.0339 40.6151 33.9323 40.6151 32.6507V13.2107C40.6151 12.0155 39.9742 10.8275 38.8726 10.1867L22.0894 0.466659C21.5422 0.193059 20.9879 0.00585938 20.3471 0.00585938H20.2607Z" fill="#9DCCED"/>
<path d="M9.16406 39.893L10.7193 35.6738L13.8369 38.2442L10.9065 40.9946L9.16406 39.893Z" fill="#213147"/>
<path d="M18.8847 11.8359H14.5719C14.2983 11.8359 13.9311 12.0159 13.8375 12.2967L4.67188 37.4175L9.07108 39.9879L19.1583 12.3831C19.2519 12.1095 19.0647 11.8359 18.7911 11.8359H18.8847Z" fill="white"/>
<path d="M26.3069 11.8364H21.9941C21.7205 11.8364 21.3533 12.0164 21.2597 12.2972L10.8125 40.9028L15.2117 43.4732L26.5805 12.2972C26.6741 12.0236 26.4869 11.75 26.2133 11.75L26.3069 11.8364Z" fill="white"/>
<path d="M58.7739 17.0625C59.2347 17.0625 59.6019 17.1561 59.8755 17.3361C60.1491 17.5161 60.4227 17.8833 60.7035 18.3441L66.2979 28.4313C66.3915 28.5249 66.3915 28.6113 66.2979 28.7049C66.2979 28.7985 66.2043 28.7985 66.0243 28.7985H63.9147C63.7347 28.7985 63.6411 28.7049 63.5475 28.6185L62.3451 26.4153H54.4611L53.2659 28.6185C53.1723 28.7985 53.0859 28.7985 52.8987 28.7985H50.6955C50.5155 28.7985 50.4219 28.7985 50.4219 28.7049C50.4219 28.6113 50.4219 28.5249 50.4219 28.4313L55.9227 18.3441C56.1963 17.7969 56.4699 17.5161 56.7507 17.3361C57.0315 17.1561 57.2979 17.0625 57.6651 17.0625H58.6731H58.7739ZM55.4691 24.4929H61.2435L58.5867 19.5393C58.4931 19.4457 58.4931 19.4457 58.4067 19.4457H58.3131C58.2195 19.4457 58.1331 19.4457 58.1331 19.5393L55.4691 24.4929Z" fill="white"/>
<path d="M78.4871 17.0625C79.7687 17.0625 80.6904 17.3361 81.2376 17.9769C81.7848 18.5241 82.0656 19.4457 82.0656 20.5473V21.4617C82.0656 22.4697 81.8856 23.2041 81.5184 23.7513C81.1512 24.2985 80.5103 24.6657 79.5959 24.8529L82.4399 28.4313C82.5335 28.5249 82.5336 28.6113 82.5336 28.7049C82.5336 28.7985 82.4399 28.8849 82.2599 28.8849H80.0568C79.8768 28.8849 79.7831 28.8849 79.7831 28.7913C79.6895 28.7913 79.6895 28.6977 79.6031 28.6113L76.9464 25.1265H71.5392V28.5177C71.5392 28.7913 71.4455 28.8849 71.1719 28.8849H69.3359C69.0623 28.8849 68.9688 28.7913 68.9688 28.5177V17.6097C68.9688 17.2425 69.1487 17.0625 69.5159 17.0625H78.5951H78.4871ZM71.5176 23.1105H77.9328C78.48 23.1105 78.9407 23.0169 79.1279 22.7433C79.4015 22.4697 79.4951 22.1025 79.4951 21.6417V20.9073C79.4951 20.3601 79.4015 19.9929 79.1279 19.8057C78.8543 19.5321 78.4872 19.4385 77.9328 19.4385H71.6976C71.5176 19.4385 71.5176 19.5321 71.5176 19.6185V23.1105Z" fill="white"/>
<path d="M96.182 17.0625C97.3772 17.0625 98.198 17.3361 98.6588 17.7969C99.1196 18.2577 99.3932 18.9921 99.3932 19.9065V20.7345C99.3932 21.6489 99.026 22.3833 98.2916 22.8441C99.026 23.3049 99.4868 24.0393 99.4868 25.0473V26.0553C99.4868 26.5161 99.3932 26.8833 99.3068 27.2505C99.2204 27.6177 99.0332 27.8913 98.846 28.1649C98.5724 28.4385 98.2988 28.6257 97.9316 28.7121C97.5644 28.8057 97.1036 28.8921 96.5564 28.8921H86.5628C86.1956 28.8921 86.0156 28.7121 86.0156 28.3449V17.6169C86.0156 17.2497 86.1956 17.0697 86.5628 17.0697H96.2828H96.182V17.0625ZM88.5716 21.9225H95.4476C95.9948 21.9225 96.362 21.8289 96.5492 21.6489C96.7364 21.4689 96.8228 21.2817 96.8228 20.9145V20.3673C96.8228 20.0001 96.7292 19.7265 96.5492 19.6329C96.3692 19.4529 96.002 19.3593 95.6348 19.3593H88.7588C88.5788 19.3593 88.5788 19.4529 88.5788 19.5393V21.9225H88.5716ZM88.5716 23.7585V26.2353C88.5716 26.4153 88.6652 26.4153 88.7516 26.4153H95.6276C96.0884 26.4153 96.362 26.3217 96.542 26.1417C96.722 25.9617 96.8156 25.6809 96.8156 25.4073V24.7665C96.8156 24.3993 96.722 24.1257 96.542 23.9385C96.362 23.7513 95.9948 23.6649 95.3468 23.6649H88.478L88.5716 23.7585Z" fill="white"/>
<path d="M105.719 17.0625C105.992 17.0625 106.086 17.1561 106.086 17.4297V28.4313C106.086 28.7049 105.992 28.7985 105.719 28.7985H103.883C103.609 28.7985 103.516 28.7049 103.516 28.4313V17.4297C103.516 17.1561 103.609 17.0625 103.883 17.0625H105.719Z" fill="white"/>
<path d="M123.415 17.0625C123.689 17.0625 123.782 17.1561 123.782 17.4297V19.0785C123.782 19.3521 123.689 19.4457 123.415 19.4457H118.094V28.4313C118.094 28.7049 118.001 28.7985 117.727 28.7985H115.891C115.618 28.7985 115.524 28.7049 115.524 28.4313V19.4457H110.203C109.93 19.4457 109.836 19.3521 109.836 19.0785V17.4297C109.836 17.1561 109.93 17.0625 110.203 17.0625H123.314H123.415Z" fill="white"/>
<path d="M136.714 17.0625C137.995 17.0625 138.917 17.3361 139.464 17.9769C140.011 18.5241 140.292 19.4457 140.292 20.5473V21.4617C140.292 22.4697 140.112 23.2041 139.745 23.7513C139.378 24.2985 138.737 24.6657 137.823 24.8529L140.667 28.4313C140.76 28.5249 140.76 28.6113 140.76 28.7049C140.76 28.7985 140.667 28.8849 140.487 28.8849H138.283C138.103 28.8849 138.01 28.8849 138.01 28.7913C137.916 28.7913 137.916 28.6977 137.83 28.6113L135.173 25.1265H129.766V28.5177C129.766 28.7913 129.672 28.8849 129.399 28.8849H127.563C127.289 28.8849 127.195 28.7913 127.195 28.5177V17.6097C127.195 17.2425 127.375 17.0625 127.743 17.0625H136.822H136.714ZM129.744 23.1105H136.159C136.707 23.1105 137.167 23.0169 137.355 22.7433C137.628 22.4697 137.722 22.1025 137.722 21.6417V20.9073C137.722 20.3601 137.628 19.9929 137.355 19.8057C137.081 19.5321 136.714 19.4385 136.159 19.4385H129.924C129.744 19.4385 129.744 19.5321 129.744 19.6185V23.1105Z" fill="white"/>
<path d="M146.157 17.0625C146.43 17.0625 146.524 17.1561 146.524 17.4297V24.1257C146.524 24.5865 146.524 24.9537 146.617 25.2273C146.711 25.5009 146.797 25.7745 146.985 25.9617C147.172 26.1489 147.352 26.2353 147.625 26.3289C147.899 26.4225 148.266 26.4225 148.727 26.4225H153.407C153.868 26.4225 154.235 26.4225 154.509 26.3289C154.782 26.2353 155.056 26.1489 155.149 25.9617C155.329 25.7817 155.423 25.5009 155.517 25.2273C155.61 24.9537 155.61 24.5865 155.61 24.1257V17.4297C155.61 17.1561 155.704 17.0625 155.977 17.0625H157.813C158.087 17.0625 158.181 17.1561 158.181 17.4297V24.3993C158.181 25.2273 158.087 25.8681 157.907 26.4153C157.727 26.9625 157.446 27.4233 157.079 27.7905C156.712 28.1577 156.251 28.4313 155.61 28.5249C154.969 28.7049 154.329 28.7985 153.407 28.7985H148.547C147.719 28.7985 146.985 28.7049 146.344 28.5249C145.797 28.3449 145.242 28.0641 144.875 27.7905C144.508 27.4233 144.234 26.9625 144.047 26.4153C143.867 25.8681 143.773 25.1337 143.773 24.3993V17.4297C143.773 17.1561 143.867 17.0625 144.141 17.0625H145.977H146.157Z" fill="white"/>
<path d="M165.414 17.0625C165.688 17.0625 165.875 17.0625 166.055 17.1561C166.235 17.1561 166.422 17.2497 166.516 17.3361C166.61 17.4297 166.79 17.5161 166.883 17.7033C166.977 17.8833 167.063 18.0705 167.25 18.3441L170.735 26.4153C170.829 26.5089 170.829 26.5953 171.009 26.5953H171.189C171.282 26.5953 171.369 26.5017 171.462 26.4153L174.947 18.3441C175.041 18.0705 175.127 17.8833 175.314 17.7033C175.408 17.5233 175.494 17.4297 175.682 17.3361C175.775 17.2425 175.955 17.1561 176.142 17.1561C176.33 17.1561 176.51 17.0625 176.783 17.0625H178.619C179.166 17.0625 179.627 17.1561 179.814 17.4297C179.994 17.7033 180.088 18.1641 180.088 18.8049V28.4313C180.088 28.7049 179.994 28.7985 179.721 28.7985H177.978C177.705 28.7985 177.611 28.7049 177.611 28.4313V19.6329C177.611 19.5393 177.518 19.4529 177.518 19.4529H177.338C177.244 19.4529 177.158 19.5465 177.158 19.5465L173.766 27.0633C173.673 27.3369 173.493 27.6105 173.306 27.7977C173.118 27.9849 173.032 28.1649 172.845 28.3449C172.665 28.4385 172.478 28.6185 172.298 28.6185C172.118 28.7121 171.837 28.7121 171.563 28.7121H170.735C170.462 28.7121 170.188 28.7121 170.001 28.6185C169.814 28.5249 169.634 28.4385 169.454 28.3449C169.274 28.2513 169.18 28.0713 168.993 27.7977C168.813 27.6177 168.719 27.3369 168.532 27.0633L165.141 19.5465C165.141 19.4529 165.047 19.4529 164.961 19.4529H164.781C164.687 19.4529 164.687 19.5465 164.687 19.6329V28.4385C164.687 28.7121 164.594 28.8057 164.32 28.8057H162.57C162.297 28.8057 162.203 28.7121 162.203 28.4385V18.8049C162.203 18.1641 162.297 17.7033 162.477 17.4297C162.657 17.1561 163.118 17.0625 163.672 17.0625H165.508H165.414Z" fill="white"/>
</g>
<defs>
<clipPath id="clip0_3819_1050">
<rect width="180" height="45.864" fill="white"/>
</clipPath>
</defs>
</svg>
